<svg width="1600" height="900" viewBox="0 0 1600 900" fill="none" xmlns="http://www.w3.org/2000/svg">
  <rect width="1600" height="900" fill="#F5F7F8"/>
  <rect x="42" y="42" width="1516" height="816" rx="28" fill="white" stroke="#D9E2EC" stroke-width="2"/>
  <rect x="42" y="42" width="1516" height="118" rx="28" fill="#162A44"/>
  <path d="M42 132C42 116.536 54.536 104 70 104H1530C1545.46 104 1558 116.536 1558 132V160H42V132Z" fill="#162A44"/>
  <text x="96" y="116" fill="white" font-family="Sora, Arial, sans-serif" font-size="34" font-weight="700">RodaModelo</text>
  <text x="96" y="228" fill="#162A44" font-family="Sora, Arial, sans-serif" font-size="42" font-weight="700">Titulo do Slide</text>
  <rect x="96" y="244" width="240" height="4" rx="2" fill="#B38A3D"/>
  <rect x="96" y="292" width="760" height="474" rx="22" fill="#FBFCFD" stroke="#EAF0F6" stroke-width="2"/>
  <text x="126" y="346" fill="#1F3A5F" font-family="Sora, Arial, sans-serif" font-size="24" font-weight="700">Texto principal</text>
  <text x="126" y="400" fill="#3E4C59" font-family="Nunito Sans, Arial, sans-serif" font-size="28">• Primeiro ponto importante da analise</text>
  <text x="126" y="452" fill="#3E4C59" font-family="Nunito Sans, Arial, sans-serif" font-size="28">• Segundo ponto com interpretacao tecnica</text>
  <text x="126" y="504" fill="#3E4C59" font-family="Nunito Sans, Arial, sans-serif" font-size="28">• Terceiro ponto com conclusao ou observacao</text>
  <text x="126" y="556" fill="#3E4C59" font-family="Nunito Sans, Arial, sans-serif" font-size="28">• Quarto ponto, se necessario</text>
  <rect x="896" y="292" width="610" height="474" rx="22" fill="#F8FBFD" stroke="#D9E2EC" stroke-width="2"/>
  <text x="926" y="346" fill="#1F3A5F" font-family="Sora, Arial, sans-serif" font-size="24" font-weight="700">Quadro tecnico / imagem / grafico</text>
  <rect x="926" y="384" width="550" height="320" rx="18" fill="white" stroke="#EAF0F6" stroke-width="2"/>
  <line x1="956" y1="660" x2="1436" y2="460" stroke="#1F3A5F" stroke-width="5" stroke-linecap="round"/>
  <circle cx="956" cy="660" r="8" fill="#B38A3D"/>
  <circle cx="1080" cy="618" r="8" fill="#B38A3D"/>
  <circle cx="1200" cy="570" r="8" fill="#B38A3D"/>
  <circle cx="1320" cy="520" r="8" fill="#B38A3D"/>
  <circle cx="1436" cy="460" r="8" fill="#B38A3D"/>
  <text x="96" y="816" fill="#6B7C93" font-family="Nunito Sans, Arial, sans-serif" font-size="20">Modelo de slide de conteudo</text>
</svg>
